<?xml version="1.0" encoding="UTF-8"?><svg id="_レイヤー_2" xmlns="http://www.w3.org/2000/svg" viewBox="0 0 50 51.9"><defs><style>.cls-1{fill:#f6c144;}.cls-2{fill:#8dc698;}</style></defs><g id="_レイヤー_1-2"><path class="cls-1" d="m50,25.95C50,11.64,38.64-.08,24.86,0,15,.06,6.49,6.04,2.47,14.69c-.03.06-.06.13-.09.19-.05.1-.09.2-.13.3-.04.09-.08.19-.12.28-.04.1-.09.2-.13.31-.05.11-.09.23-.14.34-.06.15-.11.29-.17.44-.04.1-.07.19-.11.29-.04.1-.07.2-.1.3-.03.1-.07.2-.1.3-.04.11-.07.21-.1.32-.05.16-.1.31-.14.47-.03.11-.07.23-.1.34-.03.1-.06.21-.09.31-.02.06-.03.12-.05.18-.09.34-.1.69-.02,1.04.01.05.02.1.04.16.16.66.53,1.49,1.31,2.05.57.4,1.36.67,2.46.62,4.83-.21,8.5-11.59,8.5-11.59,0,0-1.5,5.88,2.33,4.5,3.15-1.14,3.71-6.96,3.81-8.99,1.18-.18,2.38-.27,3.6-.27,12.85,0,23.44,10.07,24.84,23.02.79.56,1.15,1.39,1.31,2.05.01.05.03.11.04.16.07.34.06.7-.02,1.04.58-2.2.89-4.51.89-6.89Z"/><path class="cls-2" d="m49.13,31.81c-.01-.05-.02-.1-.04-.16-.16-.66-.53-1.49-1.31-2.05-.57-.4-1.36-.67-2.46-.62-4.83.21-8.5,11.59-8.5,11.59,0,0,1.5-5.88-2.33-4.5-3.15,1.14-3.71,6.96-3.81,8.99-1.18.18-2.38.27-3.6.27-12.85,0-23.44-10.07-24.84-23.02-.79-.56-1.15-1.39-1.31-2.05-.01-.05-.03-.11-.04-.16-.07-.34-.06-.7.02-1.04C.31,21.25,0,23.56,0,25.95c0,14.31,11.36,26.03,25.14,25.95,9.86-.06,18.37-6.04,22.39-14.69.03-.06.06-.13.09-.19.05-.1.09-.2.13-.3.04-.09.08-.19.12-.28.04-.1.09-.21.13-.31.05-.11.09-.23.14-.34.06-.15.11-.29.17-.44.04-.1.07-.19.11-.29.04-.1.07-.2.1-.3.04-.1.07-.2.1-.3.04-.11.07-.21.1-.32.05-.16.1-.31.15-.47.03-.11.07-.22.1-.34.03-.1.06-.21.09-.31.02-.06.03-.12.05-.18.09-.34.1-.69.02-1.04Z"/></g></svg>